<?xml version="1.0" encoding="UTF-8" standalone="no"?>
<svg xmlns:xlink="http://www.w3.org/1999/xlink" height="27.2px" width="17.75px" xmlns="http://www.w3.org/2000/svg">
  <g transform="matrix(1.0, 0.0, 0.0, 1.0, -469.25, -198.8)">
    <path d="M480.65 208.5 Q480.8 210.35 481.75 210.7 482.75 211.1 484.05 209.85 485.4 208.5 486.25 206.3 487.1 204.05 487.0 202.25 486.95 200.4 485.95 200.0 485.0 199.65 483.6 200.9 482.3 202.2 481.45 204.45 480.6 206.65 480.65 208.5" fill="#49b1be" fill-rule="evenodd" stroke="none">
      <animate attributeName="fill" dur="2s" repeatCount="indefinite" values="#49b1be;#49b1bf"/>
      <animate attributeName="fill-opacity" dur="2s" repeatCount="indefinite" values="1.0;1.0"/>
      <animate attributeName="d" dur="2s" repeatCount="indefinite" values="M480.65 208.5 Q480.8 210.35 481.75 210.7 482.75 211.1 484.05 209.85 485.4 208.5 486.25 206.3 487.1 204.05 487.0 202.25 486.95 200.4 485.95 200.0 485.0 199.65 483.6 200.9 482.3 202.2 481.45 204.45 480.6 206.65 480.65 208.5;M470.25 212.85 Q468.15 218.2 470.4 222.3 470.75 224.95 473.05 225.75 475.45 226.75 478.55 223.75 481.8 220.5 482.85 211.15 483.9 201.8 485.8 200.9 487.7 199.95 486.25 198.95 484.75 197.9 475.0 205.45 472.3 207.45 470.25 212.85"/>
    </path>
    <path d="M480.65 208.5 Q480.6 206.65 481.45 204.45 482.3 202.2 483.6 200.9 485.0 199.65 485.95 200.0 486.95 200.4 487.0 202.25 487.1 204.05 486.25 206.3 485.4 208.5 484.05 209.85 482.75 211.1 481.75 210.7 480.8 210.35 480.65 208.5" fill="none" stroke="#000000" stroke-linecap="round" stroke-linejoin="round" stroke-opacity="0.0" stroke-width="1.0">
      <animate attributeName="stroke" dur="2s" repeatCount="indefinite" values="#000000;#000001"/>
      <animate attributeName="stroke-width" dur="2s" repeatCount="indefinite" values="0.0;0.0"/>
      <animate attributeName="fill-opacity" dur="2s" repeatCount="indefinite" values="0.0;0.0"/>
      <animate attributeName="d" dur="2s" repeatCount="indefinite" values="M480.65 208.5 Q480.6 206.65 481.45 204.45 482.3 202.2 483.6 200.9 485.0 199.65 485.95 200.0 486.95 200.4 487.0 202.25 487.1 204.05 486.25 206.3 485.4 208.5 484.05 209.85 482.75 211.1 481.75 210.7 480.8 210.35 480.65 208.5;M470.25 212.85 Q472.3 207.45 475.0 205.45 484.75 197.9 486.25 198.95 487.7 199.95 485.8 200.9 483.9 201.8 482.85 211.15 481.8 220.5 478.55 223.75 475.45 226.75 473.05 225.75 470.75 224.95 470.4 222.3 468.15 218.2 470.25 212.85"/>
    </path>
  </g>
</svg>
