<?xml version="1.0" encoding="UTF-8" standalone="no"?>
<svg xmlns:xlink="http://www.w3.org/1999/xlink" height="64.45px" width="17.65px" xmlns="http://www.w3.org/2000/svg">
  <g transform="matrix(1.0, 0.0, 0.0, 1.0, -469.25, -198.8)">
    <path d="M470.25 212.85 Q468.15 218.2 470.4 222.3 470.75 224.95 473.05 225.75 475.45 226.75 478.55 223.75 481.8 220.5 482.85 211.15 483.9 201.8 485.8 200.9 487.7 199.95 486.25 198.95 484.75 197.9 475.0 205.45 472.3 207.45 470.25 212.85" fill="#49b1be" fill-rule="evenodd" stroke="none">
      <animate attributeName="fill" dur="2s" repeatCount="indefinite" values="#49b1be;#49b1bf"/>
      <animate attributeName="fill-opacity" dur="2s" repeatCount="indefinite" values="1.0;1.0"/>
      <animate attributeName="d" dur="2s" repeatCount="indefinite" values="M470.25 212.85 Q468.15 218.2 470.4 222.3 470.75 224.95 473.05 225.75 475.45 226.75 478.55 223.75 481.8 220.5 482.85 211.15 483.9 201.8 485.8 200.9 487.7 199.95 486.25 198.95 484.75 197.9 475.0 205.45 472.3 207.45 470.25 212.85;M470.05 246.15 Q468.15 252.2 470.65 258.35 471.0 260.35 475.1 262.7 479.15 265.05 481.9 257.5 484.65 249.95 483.05 240.7 482.05 234.95 481.05 229.2 480.6 226.95 479.9 227.0 479.15 227.05 475.55 233.55 471.9 240.05 470.05 246.15"/>
    </path>
    <path d="M470.25 212.85 Q472.3 207.45 475.0 205.45 484.75 197.9 486.25 198.95 487.7 199.95 485.8 200.9 483.9 201.8 482.85 211.15 481.8 220.5 478.55 223.75 475.45 226.75 473.05 225.75 470.75 224.95 470.4 222.3 468.15 218.2 470.25 212.85" fill="none" stroke="#000000" stroke-linecap="round" stroke-linejoin="round" stroke-opacity="0.0" stroke-width="1.0">
      <animate attributeName="stroke" dur="2s" repeatCount="indefinite" values="#000000;#000001"/>
      <animate attributeName="stroke-width" dur="2s" repeatCount="indefinite" values="0.0;0.0"/>
      <animate attributeName="fill-opacity" dur="2s" repeatCount="indefinite" values="0.0;0.0"/>
      <animate attributeName="d" dur="2s" repeatCount="indefinite" values="M470.25 212.85 Q472.3 207.45 475.0 205.45 484.75 197.9 486.25 198.95 487.7 199.95 485.8 200.9 483.9 201.8 482.85 211.15 481.8 220.5 478.55 223.75 475.45 226.75 473.05 225.75 470.75 224.95 470.4 222.3 468.15 218.2 470.25 212.85;M470.05 246.15 Q471.9 240.05 475.55 233.55 479.15 227.05 479.9 227.0 480.6 226.95 481.05 229.2 482.05 234.95 483.05 240.7 484.65 249.95 481.9 257.5 479.15 265.05 475.1 262.7 471.0 260.35 470.65 258.35 468.15 252.2 470.05 246.15"/>
    </path>
  </g>
</svg>
