<?xml version="1.0" encoding="UTF-8" standalone="no"?>
<svg xmlns:xlink="http://www.w3.org/1999/xlink" height="85.95px" width="21.55px" xmlns="http://www.w3.org/2000/svg">
  <g transform="matrix(1.0, 0.0, 0.0, 1.0, -469.25, -227.0)">
    <path d="M470.05 246.15 Q468.15 252.2 470.65 258.35 471.0 260.35 475.1 262.7 479.15 265.05 481.9 257.5 484.65 249.95 483.05 240.7 L481.05 229.2 Q480.6 226.95 479.9 227.0 479.15 227.05 475.55 233.55 471.9 240.05 470.05 246.15" fill="#49b1be" fill-rule="evenodd" stroke="none">
      <animate attributeName="fill" dur="2s" repeatCount="indefinite" values="#49b1be;#49b1bf"/>
      <animate attributeName="fill-opacity" dur="2s" repeatCount="indefinite" values="1.0;1.0"/>
      <animate attributeName="d" dur="2s" repeatCount="indefinite" values="M470.05 246.15 Q468.15 252.2 470.65 258.35 471.0 260.35 475.1 262.7 479.15 265.05 481.9 257.5 484.65 249.95 483.05 240.7 L481.05 229.2 Q480.6 226.95 479.9 227.0 479.15 227.05 475.55 233.55 471.9 240.05 470.05 246.15;M477.2 295.85 Q475.3 301.9 477.8 308.05 478.15 310.05 482.25 312.4 486.3 314.75 489.05 307.2 491.8 299.65 490.2 290.4 L488.2 278.9 Q487.75 276.65 487.05 276.7 486.3 276.75 482.7 283.25 479.05 289.75 477.2 295.85"/>
    </path>
    <path d="M470.05 246.15 Q471.9 240.05 475.55 233.55 479.15 227.05 479.9 227.0 480.6 226.95 481.05 229.2 L483.05 240.7 Q484.65 249.95 481.9 257.5 479.15 265.05 475.1 262.7 471.0 260.35 470.65 258.35 468.15 252.2 470.05 246.15" fill="none" stroke="#000000" stroke-linecap="round" stroke-linejoin="round" stroke-opacity="0.0" stroke-width="1.0">
      <animate attributeName="stroke" dur="2s" repeatCount="indefinite" values="#000000;#000001"/>
      <animate attributeName="stroke-width" dur="2s" repeatCount="indefinite" values="0.0;0.0"/>
      <animate attributeName="fill-opacity" dur="2s" repeatCount="indefinite" values="0.0;0.0"/>
      <animate attributeName="d" dur="2s" repeatCount="indefinite" values="M470.05 246.15 Q471.9 240.05 475.55 233.55 479.15 227.05 479.9 227.0 480.6 226.95 481.05 229.2 L483.05 240.7 Q484.65 249.95 481.9 257.5 479.15 265.05 475.1 262.7 471.0 260.35 470.65 258.35 468.15 252.2 470.05 246.15;M477.2 295.85 Q479.05 289.75 482.7 283.25 486.3 276.75 487.05 276.7 487.75 276.65 488.2 278.9 L490.2 290.4 Q491.8 299.65 489.05 307.2 486.3 314.75 482.25 312.4 478.15 310.05 477.8 308.05 475.3 301.9 477.2 295.85"/>
    </path>
  </g>
</svg>
