<?xml version="1.0" encoding="UTF-8" standalone="no"?>
<svg xmlns:xlink="http://www.w3.org/1999/xlink" height="53.25px" width="30.25px" xmlns="http://www.w3.org/2000/svg">
  <g transform="matrix(1.0, 0.0, 0.0, 1.0, -427.25, -126.0)">
    <path d="M440.85 140.05 Q438.75 145.4 441.0 149.5 441.35 152.15 443.65 152.95 446.05 153.95 449.15 150.95 452.4 147.7 453.45 138.35 454.5 129.0 456.4 128.1 458.3 127.15 456.85 126.15 455.35 125.1 445.6 132.65 442.9 134.65 440.85 140.05" fill="#49b1be" fill-rule="evenodd" stroke="none">
      <animate attributeName="fill" dur="2s" repeatCount="indefinite" values="#49b1be;#49b1bf"/>
      <animate attributeName="fill-opacity" dur="2s" repeatCount="indefinite" values="1.0;1.0"/>
      <animate attributeName="d" dur="2s" repeatCount="indefinite" values="M440.85 140.05 Q438.75 145.4 441.0 149.5 441.35 152.15 443.65 152.95 446.05 153.95 449.15 150.95 452.4 147.7 453.45 138.35 454.5 129.0 456.4 128.1 458.3 127.15 456.85 126.15 455.35 125.1 445.6 132.65 442.9 134.65 440.85 140.05;M428.05 162.15 Q426.15 168.2 428.65 174.35 429.0 176.35 433.1 178.7 437.15 181.05 439.9 173.5 442.65 165.95 441.05 156.7 440.05 150.95 439.05 145.2 438.6 142.95 437.9 143.0 437.15 143.05 433.55 149.55 429.9 156.05 428.05 162.15"/>
    </path>
    <path d="M440.85 140.05 Q442.9 134.65 445.6 132.65 455.35 125.1 456.85 126.15 458.3 127.15 456.4 128.1 454.5 129.0 453.45 138.35 452.4 147.7 449.15 150.95 446.05 153.95 443.65 152.95 441.35 152.15 441.0 149.5 438.75 145.4 440.85 140.05" fill="none" stroke="#000000" stroke-linecap="round" stroke-linejoin="round" stroke-opacity="0.0" stroke-width="1.0">
      <animate attributeName="stroke" dur="2s" repeatCount="indefinite" values="#000000;#000001"/>
      <animate attributeName="stroke-width" dur="2s" repeatCount="indefinite" values="0.0;0.0"/>
      <animate attributeName="fill-opacity" dur="2s" repeatCount="indefinite" values="0.0;0.0"/>
      <animate attributeName="d" dur="2s" repeatCount="indefinite" values="M440.85 140.05 Q442.9 134.65 445.6 132.65 455.35 125.1 456.85 126.15 458.3 127.15 456.4 128.1 454.5 129.0 453.45 138.35 452.4 147.7 449.15 150.95 446.05 153.95 443.65 152.95 441.35 152.15 441.0 149.5 438.75 145.4 440.85 140.05;M428.05 162.15 Q429.9 156.05 433.55 149.55 437.15 143.05 437.9 143.0 438.6 142.95 439.05 145.2 440.05 150.95 441.05 156.7 442.65 165.95 439.9 173.5 437.15 181.05 433.1 178.7 429.0 176.35 428.65 174.35 426.15 168.2 428.05 162.15"/>
    </path>
  </g>
</svg>
